solid OpenSCAD_Model
  facet normal 1 -0 0
    outer loop
      vertex 214 0 13
      vertex 214 179 0
      vertex 214 179 13
    endloop
  endfacet
  facet normal 1 0 0
    outer loop
      vertex 214 179 0
      vertex 214 0 13
      vertex 214 0 0
    endloop
  endfacet
  facet normal -0 0 1
    outer loop
      vertex 3 66 13
      vertex 168 63 13
      vertex 168 66 13
    endloop
  endfacet
  facet normal 0 0 1
    outer loop
      vertex 168 63 13
      vertex 3 66 13
      vertex 3 63 13
    endloop
  endfacet
  facet normal -0 0 1
    outer loop
      vertex 171 170 13
      vertex 195 167 13
      vertex 195 170 13
    endloop
  endfacet
  facet normal 0 0 1
    outer loop
      vertex 195 167 13
      vertex 171 170 13
      vertex 171 167 13
    endloop
  endfacet
  facet normal -0 0 1
    outer loop
      vertex 171 56 13
      vertex 211 53 13
      vertex 211 56 13
    endloop
  endfacet
  facet normal 0 0 1
    outer loop
      vertex 211 53 13
      vertex 171 56 13
      vertex 171 53 13
    endloop
  endfacet
  facet normal -0 0 1
    outer loop
      vertex 171 109 13
      vertex 211 106 13
      vertex 211 109 13
    endloop
  endfacet
  facet normal 0 0 1
    outer loop
      vertex 211 106 13
      vertex 171 109 13
      vertex 171 106 13
    endloop
  endfacet
  facet normal -0 0 1
    outer loop
      vertex 206 162 13
      vertex 211 159 13
      vertex 211 162 13
    endloop
  endfacet
  facet normal 0 0 1
    outer loop
      vertex 203 162 13
      vertex 206 162 13
      vertex 203 175 13
    endloop
  endfacet
  facet normal -0 0 1
    outer loop
      vertex 203 162 13
      vertex 211 159 13
      vertex 206 162 13
    endloop
  endfacet
  facet normal -0 0 1
    outer loop
      vertex 198 162 13
      vertex 211 159 13
      vertex 203 162 13
    endloop
  endfacet
  facet normal 0 0 1
    outer loop
      vertex 198 175 13
      vertex 195 170 13
      vertex 198 162 13
    endloop
  endfacet
  facet normal -0 0 1
    outer loop
      vertex 195 167 13
      vertex 198 162 13
      vertex 195 170 13
    endloop
  endfacet
  facet normal -0 0 1
    outer loop
      vertex 195 164 13
      vertex 198 162 13
      vertex 195 167 13
    endloop
  endfacet
  facet normal 0 0 1
    outer loop
      vertex 171 159 13
      vertex 195 164 13
      vertex 171 164 13
    endloop
  endfacet
  facet normal 0 0 1
    outer loop
      vertex 195 164 13
      vertex 171 159 13
      vertex 198 162 13
    endloop
  endfacet
  facet normal 0 0 1
    outer loop
      vertex 198 162 13
      vertex 171 159 13
      vertex 211 159 13
    endloop
  endfacet
  facet normal 0 0 1
    outer loop
      vertex 211 162 13
      vertex 214 179 13
      vertex 211 175 13
    endloop
  endfacet
  facet normal 0 0 1
    outer loop
      vertex 214 179 13
      vertex 206 175 13
      vertex 211 175 13
    endloop
  endfacet
  facet normal 0 0 1
    outer loop
      vertex 206 175 13
      vertex 203 175 13
      vertex 206 162 13
    endloop
  endfacet
  facet normal 0 0 1
    outer loop
      vertex 214 179 13
      vertex 203 175 13
      vertex 206 175 13
    endloop
  endfacet
  facet normal 0 0 1
    outer loop
      vertex 214 179 13
      vertex 198 175 13
      vertex 203 175 13
    endloop
  endfacet
  facet normal 0 0 1
    outer loop
      vertex 195 170 13
      vertex 198 175 13
      vertex 195 173 13
    endloop
  endfacet
  facet normal 0 0 1
    outer loop
      vertex 168 176 13
      vertex 195 173 13
      vertex 198 175 13
    endloop
  endfacet
  facet normal -0 0 1
    outer loop
      vertex 168 176 13
      vertex 198 175 13
      vertex 214 179 13
    endloop
  endfacet
  facet normal 0 0 1
    outer loop
      vertex 168 176 13
      vertex 171 170 13
      vertex 171 173 13
    endloop
  endfacet
  facet normal 0 0 1
    outer loop
      vertex 171 170 13
      vertex 168 176 13
      vertex 171 167 13
    endloop
  endfacet
  facet normal 0 0 1
    outer loop
      vertex 171 167 13
      vertex 168 176 13
      vertex 171 164 13
    endloop
  endfacet
  facet normal 0 0 1
    outer loop
      vertex 171 164 13
      vertex 168 176 13
      vertex 171 159 13
    endloop
  endfacet
  facet normal 0 0 1
    outer loop
      vertex 171 159 13
      vertex 168 176 13
      vertex 171 109 13
    endloop
  endfacet
  facet normal 0 0 1
    outer loop
      vertex 168 66 13
      vertex 171 109 13
      vertex 168 176 13
    endloop
  endfacet
  facet normal 0 0 1
    outer loop
      vertex 171 106 13
      vertex 168 66 13
      vertex 171 56 13
    endloop
  endfacet
  facet normal -0 0 1
    outer loop
      vertex 168 63 13
      vertex 171 56 13
      vertex 168 66 13
    endloop
  endfacet
  facet normal 0 0 1
    outer loop
      vertex 171 109 13
      vertex 168 66 13
      vertex 171 106 13
    endloop
  endfacet
  facet normal 0 0 1
    outer loop
      vertex 195 173 13
      vertex 168 176 13
      vertex 171 173 13
    endloop
  endfacet
  facet normal -0 0 1
    outer loop
      vertex 0 179 13
      vertex 168 176 13
      vertex 214 179 13
    endloop
  endfacet
  facet normal 0 0 1
    outer loop
      vertex 0 179 13
      vertex 3 66 13
      vertex 3 176 13
    endloop
  endfacet
  facet normal 0 0 1
    outer loop
      vertex 0 0 13
      vertex 3 66 13
      vertex 0 179 13
    endloop
  endfacet
  facet normal 0 0 1
    outer loop
      vertex 3 66 13
      vertex 0 0 13
      vertex 3 63 13
    endloop
  endfacet
  facet normal 0 0 1
    outer loop
      vertex 168 176 13
      vertex 0 179 13
      vertex 3 176 13
    endloop
  endfacet
  facet normal 0 0 1
    outer loop
      vertex 211 159 13
      vertex 214 179 13
      vertex 211 162 13
    endloop
  endfacet
  facet normal 0 0 1
    outer loop
      vertex 211 109 13
      vertex 214 179 13
      vertex 211 159 13
    endloop
  endfacet
  facet normal 0 0 1
    outer loop
      vertex 211 106 13
      vertex 214 179 13
      vertex 211 109 13
    endloop
  endfacet
  facet normal 0 0 1
    outer loop
      vertex 214 179 13
      vertex 211 106 13
      vertex 214 0 13
    endloop
  endfacet
  facet normal -0 0 1
    outer loop
      vertex 211 56 13
      vertex 214 0 13
      vertex 211 106 13
    endloop
  endfacet
  facet normal -0 0 1
    outer loop
      vertex 211 53 13
      vertex 214 0 13
      vertex 211 56 13
    endloop
  endfacet
  facet normal -0 0 1
    outer loop
      vertex 211 3 13
      vertex 214 0 13
      vertex 211 53 13
    endloop
  endfacet
  facet normal -0 0 1
    outer loop
      vertex 171 3 13
      vertex 214 0 13
      vertex 211 3 13
    endloop
  endfacet
  facet normal 0 0 1
    outer loop
      vertex 171 56 13
      vertex 168 63 13
      vertex 171 53 13
    endloop
  endfacet
  facet normal 0 0 1
    outer loop
      vertex 168 3 13
      vertex 171 53 13
      vertex 168 63 13
    endloop
  endfacet
  facet normal 0 0 1
    outer loop
      vertex 171 53 13
      vertex 168 3 13
      vertex 171 3 13
    endloop
  endfacet
  facet normal -0 0 1
    outer loop
      vertex 168 3 13
      vertex 214 0 13
      vertex 171 3 13
    endloop
  endfacet
  facet normal 0 0 1
    outer loop
      vertex 0 0 13
      vertex 168 3 13
      vertex 3 3 13
    endloop
  endfacet
  facet normal 0 0 1
    outer loop
      vertex 168 3 13
      vertex 0 0 13
      vertex 214 0 13
    endloop
  endfacet
  facet normal 0 0 1
    outer loop
      vertex 3 63 13
      vertex 0 0 13
      vertex 3 3 13
    endloop
  endfacet
  facet normal 0 0 -1
    outer loop
      vertex 0 0 0
      vertex 214 179 0
      vertex 214 0 0
    endloop
  endfacet
  facet normal -0 0 -1
    outer loop
      vertex 214 179 0
      vertex 0 0 0
      vertex 0 179 0
    endloop
  endfacet
  facet normal -1 0 0
    outer loop
      vertex 0 0 0
      vertex 0 179 13
      vertex 0 179 0
    endloop
  endfacet
  facet normal -1 -0 0
    outer loop
      vertex 0 179 13
      vertex 0 0 0
      vertex 0 0 13
    endloop
  endfacet
  facet normal 0 1 -0
    outer loop
      vertex 214 179 0
      vertex 0 179 13
      vertex 214 179 13
    endloop
  endfacet
  facet normal 0 1 0
    outer loop
      vertex 0 179 13
      vertex 214 179 0
      vertex 0 179 0
    endloop
  endfacet
  facet normal 0 -1 0
    outer loop
      vertex 0 0 0
      vertex 214 0 13
      vertex 0 0 13
    endloop
  endfacet
  facet normal 0 -1 -0
    outer loop
      vertex 214 0 13
      vertex 0 0 0
      vertex 214 0 0
    endloop
  endfacet
  facet normal -1 0 0
    outer loop
      vertex 168 66 3
      vertex 168 176 13
      vertex 168 176 3
    endloop
  endfacet
  facet normal -1 -0 0
    outer loop
      vertex 168 176 13
      vertex 168 66 3
      vertex 168 66 13
    endloop
  endfacet
  facet normal -0 0 1
    outer loop
      vertex 3 176 3
      vertex 168 66 3
      vertex 168 176 3
    endloop
  endfacet
  facet normal 0 0 1
    outer loop
      vertex 168 66 3
      vertex 3 176 3
      vertex 3 66 3
    endloop
  endfacet
  facet normal 1 -0 0
    outer loop
      vertex 3 66 13
      vertex 3 176 3
      vertex 3 176 13
    endloop
  endfacet
  facet normal 1 0 0
    outer loop
      vertex 3 176 3
      vertex 3 66 13
      vertex 3 66 3
    endloop
  endfacet
  facet normal 0 -1 0
    outer loop
      vertex 3 176 3
      vertex 168 176 13
      vertex 3 176 13
    endloop
  endfacet
  facet normal 0 -1 -0
    outer loop
      vertex 168 176 13
      vertex 3 176 3
      vertex 168 176 3
    endloop
  endfacet
  facet normal 0 1 -0
    outer loop
      vertex 168 66 3
      vertex 3 66 13
      vertex 168 66 13
    endloop
  endfacet
  facet normal 0 1 0
    outer loop
      vertex 3 66 13
      vertex 168 66 3
      vertex 3 66 3
    endloop
  endfacet
  facet normal -1 0 0
    outer loop
      vertex 168 3 3
      vertex 168 63 13
      vertex 168 63 3
    endloop
  endfacet
  facet normal -1 -0 0
    outer loop
      vertex 168 63 13
      vertex 168 3 3
      vertex 168 3 13
    endloop
  endfacet
  facet normal -0 0 1
    outer loop
      vertex 3 63 3
      vertex 168 3 3
      vertex 168 63 3
    endloop
  endfacet
  facet normal 0 0 1
    outer loop
      vertex 168 3 3
      vertex 3 63 3
      vertex 3 3 3
    endloop
  endfacet
  facet normal 1 -0 0
    outer loop
      vertex 3 3 13
      vertex 3 63 3
      vertex 3 63 13
    endloop
  endfacet
  facet normal 1 0 0
    outer loop
      vertex 3 63 3
      vertex 3 3 13
      vertex 3 3 3
    endloop
  endfacet
  facet normal 0 -1 0
    outer loop
      vertex 3 63 3
      vertex 168 63 13
      vertex 3 63 13
    endloop
  endfacet
  facet normal 0 -1 -0
    outer loop
      vertex 168 63 13
      vertex 3 63 3
      vertex 168 63 3
    endloop
  endfacet
  facet normal 0 1 -0
    outer loop
      vertex 168 3 3
      vertex 3 3 13
      vertex 168 3 13
    endloop
  endfacet
  facet normal 0 1 0
    outer loop
      vertex 3 3 13
      vertex 168 3 3
      vertex 3 3 3
    endloop
  endfacet
  facet normal -1 0 0
    outer loop
      vertex 211 3 3
      vertex 211 53 13
      vertex 211 53 3
    endloop
  endfacet
  facet normal -1 -0 0
    outer loop
      vertex 211 53 13
      vertex 211 3 3
      vertex 211 3 13
    endloop
  endfacet
  facet normal -0 0 1
    outer loop
      vertex 171 53 3
      vertex 211 3 3
      vertex 211 53 3
    endloop
  endfacet
  facet normal 0 0 1
    outer loop
      vertex 211 3 3
      vertex 171 53 3
      vertex 171 3 3
    endloop
  endfacet
  facet normal 1 -0 0
    outer loop
      vertex 171 3 13
      vertex 171 53 3
      vertex 171 53 13
    endloop
  endfacet
  facet normal 1 0 0
    outer loop
      vertex 171 53 3
      vertex 171 3 13
      vertex 171 3 3
    endloop
  endfacet
  facet normal 0 -1 0
    outer loop
      vertex 171 53 3
      vertex 211 53 13
      vertex 171 53 13
    endloop
  endfacet
  facet normal 0 -1 -0
    outer loop
      vertex 211 53 13
      vertex 171 53 3
      vertex 211 53 3
    endloop
  endfacet
  facet normal 0 1 -0
    outer loop
      vertex 211 3 3
      vertex 171 3 13
      vertex 211 3 13
    endloop
  endfacet
  facet normal 0 1 0
    outer loop
      vertex 171 3 13
      vertex 211 3 3
      vertex 171 3 3
    endloop
  endfacet
  facet normal -1 0 0
    outer loop
      vertex 211 56 3
      vertex 211 106 13
      vertex 211 106 3
    endloop
  endfacet
  facet normal -1 -0 0
    outer loop
      vertex 211 106 13
      vertex 211 56 3
      vertex 211 56 13
    endloop
  endfacet
  facet normal -0 0 1
    outer loop
      vertex 171 106 3
      vertex 211 56 3
      vertex 211 106 3
    endloop
  endfacet
  facet normal 0 0 1
    outer loop
      vertex 211 56 3
      vertex 171 106 3
      vertex 171 56 3
    endloop
  endfacet
  facet normal 1 -0 0
    outer loop
      vertex 171 56 13
      vertex 171 106 3
      vertex 171 106 13
    endloop
  endfacet
  facet normal 1 0 0
    outer loop
      vertex 171 106 3
      vertex 171 56 13
      vertex 171 56 3
    endloop
  endfacet
  facet normal 0 -1 0
    outer loop
      vertex 171 106 3
      vertex 211 106 13
      vertex 171 106 13
    endloop
  endfacet
  facet normal 0 -1 -0
    outer loop
      vertex 211 106 13
      vertex 171 106 3
      vertex 211 106 3
    endloop
  endfacet
  facet normal 0 1 -0
    outer loop
      vertex 211 56 3
      vertex 171 56 13
      vertex 211 56 13
    endloop
  endfacet
  facet normal 0 1 0
    outer loop
      vertex 171 56 13
      vertex 211 56 3
      vertex 171 56 3
    endloop
  endfacet
  facet normal -1 0 0
    outer loop
      vertex 211 109 3
      vertex 211 159 13
      vertex 211 159 3
    endloop
  endfacet
  facet normal -1 -0 0
    outer loop
      vertex 211 159 13
      vertex 211 109 3
      vertex 211 109 13
    endloop
  endfacet
  facet normal -0 0 1
    outer loop
      vertex 171 159 3
      vertex 211 109 3
      vertex 211 159 3
    endloop
  endfacet
  facet normal 0 0 1
    outer loop
      vertex 211 109 3
      vertex 171 159 3
      vertex 171 109 3
    endloop
  endfacet
  facet normal 1 -0 0
    outer loop
      vertex 171 109 13
      vertex 171 159 3
      vertex 171 159 13
    endloop
  endfacet
  facet normal 1 0 0
    outer loop
      vertex 171 159 3
      vertex 171 109 13
      vertex 171 109 3
    endloop
  endfacet
  facet normal 0 -1 0
    outer loop
      vertex 171 159 3
      vertex 211 159 13
      vertex 171 159 13
    endloop
  endfacet
  facet normal 0 -1 -0
    outer loop
      vertex 211 159 13
      vertex 171 159 3
      vertex 211 159 3
    endloop
  endfacet
  facet normal 0 1 -0
    outer loop
      vertex 211 109 3
      vertex 171 109 13
      vertex 211 109 13
    endloop
  endfacet
  facet normal 0 1 0
    outer loop
      vertex 171 109 13
      vertex 211 109 3
      vertex 171 109 3
    endloop
  endfacet
  facet normal -1 0 0
    outer loop
      vertex 211 162 3
      vertex 211 175 13
      vertex 211 175 3
    endloop
  endfacet
  facet normal -1 -0 0
    outer loop
      vertex 211 175 13
      vertex 211 162 3
      vertex 211 162 13
    endloop
  endfacet
  facet normal 1 -0 0
    outer loop
      vertex 171 170 13
      vertex 171 173 3
      vertex 171 173 13
    endloop
  endfacet
  facet normal 1 0 0
    outer loop
      vertex 171 173 3
      vertex 171 170 13
      vertex 171 170 3
    endloop
  endfacet
  facet normal 1 -0 0
    outer loop
      vertex 171 164 13
      vertex 171 167 3
      vertex 171 167 13
    endloop
  endfacet
  facet normal 1 0 0
    outer loop
      vertex 171 167 3
      vertex 171 164 13
      vertex 171 164 3
    endloop
  endfacet
  facet normal 0 -1 0
    outer loop
      vertex 206 175 3
      vertex 211 175 13
      vertex 206 175 13
    endloop
  endfacet
  facet normal 0 -1 -0
    outer loop
      vertex 211 175 13
      vertex 206 175 3
      vertex 211 175 3
    endloop
  endfacet
  facet normal 0 -1 0
    outer loop
      vertex 198 175 3
      vertex 203 175 13
      vertex 198 175 13
    endloop
  endfacet
  facet normal 0 -1 -0
    outer loop
      vertex 203 175 13
      vertex 198 175 3
      vertex 203 175 3
    endloop
  endfacet
  facet normal 0 1 -0
    outer loop
      vertex 211 162 3
      vertex 206 162 13
      vertex 211 162 13
    endloop
  endfacet
  facet normal 0 1 0
    outer loop
      vertex 206 162 13
      vertex 211 162 3
      vertex 206 162 3
    endloop
  endfacet
  facet normal 0 1 -0
    outer loop
      vertex 203 162 3
      vertex 198 162 13
      vertex 203 162 13
    endloop
  endfacet
  facet normal 0 1 0
    outer loop
      vertex 198 162 13
      vertex 203 162 3
      vertex 198 162 3
    endloop
  endfacet
  facet normal -1 0 0
    outer loop
      vertex 195 164 3
      vertex 195 167 13
      vertex 195 167 3
    endloop
  endfacet
  facet normal -1 -0 0
    outer loop
      vertex 195 167 13
      vertex 195 164 3
      vertex 195 164 13
    endloop
  endfacet
  facet normal -0 0 1
    outer loop
      vertex 171 167 3
      vertex 195 164 3
      vertex 195 167 3
    endloop
  endfacet
  facet normal 0 0 1
    outer loop
      vertex 195 164 3
      vertex 171 167 3
      vertex 171 164 3
    endloop
  endfacet
  facet normal 0 -1 0
    outer loop
      vertex 171 167 3
      vertex 195 167 13
      vertex 171 167 13
    endloop
  endfacet
  facet normal 0 -1 -0
    outer loop
      vertex 195 167 13
      vertex 171 167 3
      vertex 195 167 3
    endloop
  endfacet
  facet normal 0 1 -0
    outer loop
      vertex 195 164 3
      vertex 171 164 13
      vertex 195 164 13
    endloop
  endfacet
  facet normal 0 1 0
    outer loop
      vertex 171 164 13
      vertex 195 164 3
      vertex 171 164 3
    endloop
  endfacet
  facet normal -1 0 0
    outer loop
      vertex 195 170 3
      vertex 195 173 13
      vertex 195 173 3
    endloop
  endfacet
  facet normal -1 -0 0
    outer loop
      vertex 195 173 13
      vertex 195 170 3
      vertex 195 170 13
    endloop
  endfacet
  facet normal -0 0 1
    outer loop
      vertex 171 173 3
      vertex 195 170 3
      vertex 195 173 3
    endloop
  endfacet
  facet normal 0 0 1
    outer loop
      vertex 195 170 3
      vertex 171 173 3
      vertex 171 170 3
    endloop
  endfacet
  facet normal 0 -1 0
    outer loop
      vertex 171 173 3
      vertex 195 173 13
      vertex 171 173 13
    endloop
  endfacet
  facet normal 0 -1 -0
    outer loop
      vertex 195 173 13
      vertex 171 173 3
      vertex 195 173 3
    endloop
  endfacet
  facet normal 0 1 -0
    outer loop
      vertex 195 170 3
      vertex 171 170 13
      vertex 195 170 13
    endloop
  endfacet
  facet normal 0 1 0
    outer loop
      vertex 171 170 13
      vertex 195 170 3
      vertex 171 170 3
    endloop
  endfacet
  facet normal -1 0 0
    outer loop
      vertex 203 162 3
      vertex 203 175 13
      vertex 203 175 3
    endloop
  endfacet
  facet normal -1 -0 0
    outer loop
      vertex 203 175 13
      vertex 203 162 3
      vertex 203 162 13
    endloop
  endfacet
  facet normal -0 0 1
    outer loop
      vertex 198 175 3
      vertex 203 162 3
      vertex 203 175 3
    endloop
  endfacet
  facet normal 0 0 1
    outer loop
      vertex 203 162 3
      vertex 198 175 3
      vertex 198 162 3
    endloop
  endfacet
  facet normal 1 -0 0
    outer loop
      vertex 198 162 13
      vertex 198 175 3
      vertex 198 175 13
    endloop
  endfacet
  facet normal 1 0 0
    outer loop
      vertex 198 175 3
      vertex 198 162 13
      vertex 198 162 3
    endloop
  endfacet
  facet normal -0 0 1
    outer loop
      vertex 206 175 3
      vertex 211 162 3
      vertex 211 175 3
    endloop
  endfacet
  facet normal 0 0 1
    outer loop
      vertex 211 162 3
      vertex 206 175 3
      vertex 206 162 3
    endloop
  endfacet
  facet normal 1 -0 0
    outer loop
      vertex 206 162 13
      vertex 206 175 3
      vertex 206 175 13
    endloop
  endfacet
  facet normal 1 0 0
    outer loop
      vertex 206 175 3
      vertex 206 162 13
      vertex 206 162 3
    endloop
  endfacet
  facet normal 1 -0 0
    outer loop
      vertex 211 192 12
      vertex 211 205 0
      vertex 211 205 12
    endloop
  endfacet
  facet normal 1 0 0
    outer loop
      vertex 211 205 0
      vertex 211 192 12
      vertex 211 192 0
    endloop
  endfacet
  facet normal -0 0 1
    outer loop
      vertex 171 205 12
      vertex 211 192 12
      vertex 211 205 12
    endloop
  endfacet
  facet normal 0 0 1
    outer loop
      vertex 211 192 12
      vertex 171 205 12
      vertex 171 192 12
    endloop
  endfacet
  facet normal 0 0 -1
    outer loop
      vertex 203 192 11
      vertex 206 205 11
      vertex 206 192 11
    endloop
  endfacet
  facet normal -0 0 -1
    outer loop
      vertex 206 205 11
      vertex 203 192 11
      vertex 203 205 11
    endloop
  endfacet
  facet normal 0 0 -1
    outer loop
      vertex 171 197 11
      vertex 195 200 11
      vertex 195 197 11
    endloop
  endfacet
  facet normal -0 0 -1
    outer loop
      vertex 195 200 11
      vertex 171 197 11
      vertex 171 200 11
    endloop
  endfacet
  facet normal 0 0 -1
    outer loop
      vertex 195 197 11
      vertex 198 192 11
      vertex 195 194 11
    endloop
  endfacet
  facet normal 0 0 -1
    outer loop
      vertex 171 192 11
      vertex 195 194 11
      vertex 198 192 11
    endloop
  endfacet
  facet normal -0 0 -1
    outer loop
      vertex 195 194 11
      vertex 171 192 11
      vertex 171 194 11
    endloop
  endfacet
  facet normal 0 0 -1
    outer loop
      vertex 198 192 11
      vertex 195 197 11
      vertex 198 205 11
    endloop
  endfacet
  facet normal 0 0 -1
    outer loop
      vertex 195 200 11
      vertex 198 205 11
      vertex 195 197 11
    endloop
  endfacet
  facet normal 0 0 -1
    outer loop
      vertex 195 203 11
      vertex 198 205 11
      vertex 195 200 11
    endloop
  endfacet
  facet normal 0 0 -1
    outer loop
      vertex 171 205 11
      vertex 195 203 11
      vertex 171 203 11
    endloop
  endfacet
  facet normal 0 0 -1
    outer loop
      vertex 195 203 11
      vertex 171 205 11
      vertex 198 205 11
    endloop
  endfacet
  facet normal -1 0 0
    outer loop
      vertex 171 197 0
      vertex 171 194 0
      vertex 171 197 11
    endloop
  endfacet
  facet normal -1 0 0
    outer loop
      vertex 171 203 0
      vertex 171 200 0
      vertex 171 203 11
    endloop
  endfacet
  facet normal -1 0 0
    outer loop
      vertex 171 203 11
      vertex 171 205 12
      vertex 171 205 11
    endloop
  endfacet
  facet normal -1 0 0
    outer loop
      vertex 171 200 11
      vertex 171 203 11
      vertex 171 200 0
    endloop
  endfacet
  facet normal -1 0 0
    outer loop
      vertex 171 200 11
      vertex 171 205 12
      vertex 171 203 11
    endloop
  endfacet
  facet normal -1 0 0
    outer loop
      vertex 171 197 11
      vertex 171 205 12
      vertex 171 200 11
    endloop
  endfacet
  facet normal -1 0 0
    outer loop
      vertex 171 194 11
      vertex 171 197 11
      vertex 171 194 0
    endloop
  endfacet
  facet normal -1 0 0
    outer loop
      vertex 171 192 12
      vertex 171 197 11
      vertex 171 194 11
    endloop
  endfacet
  facet normal -1 0 0
    outer loop
      vertex 171 192 12
      vertex 171 194 11
      vertex 171 192 11
    endloop
  endfacet
  facet normal -1 0 0
    outer loop
      vertex 171 197 11
      vertex 171 192 12
      vertex 171 205 12
    endloop
  endfacet
  facet normal 0 1 -0
    outer loop
      vertex 203 205 0
      vertex 198 205 11
      vertex 203 205 11
    endloop
  endfacet
  facet normal 0 1 0
    outer loop
      vertex 198 205 11
      vertex 203 205 0
      vertex 198 205 0
    endloop
  endfacet
  facet normal 0 1 0
    outer loop
      vertex 203 205 11
      vertex 211 205 12
      vertex 206 205 11
    endloop
  endfacet
  facet normal 0 1 -0
    outer loop
      vertex 211 205 0
      vertex 206 205 11
      vertex 211 205 12
    endloop
  endfacet
  facet normal 0 1 0
    outer loop
      vertex 206 205 11
      vertex 211 205 0
      vertex 206 205 0
    endloop
  endfacet
  facet normal 0 1 0
    outer loop
      vertex 198 205 11
      vertex 211 205 12
      vertex 203 205 11
    endloop
  endfacet
  facet normal 0 1 0
    outer loop
      vertex 211 205 12
      vertex 198 205 11
      vertex 171 205 12
    endloop
  endfacet
  facet normal 0 1 0
    outer loop
      vertex 171 205 12
      vertex 198 205 11
      vertex 171 205 11
    endloop
  endfacet
  facet normal 0 -1 0
    outer loop
      vertex 198 192 0
      vertex 203 192 11
      vertex 198 192 11
    endloop
  endfacet
  facet normal 0 -1 -0
    outer loop
      vertex 203 192 11
      vertex 198 192 0
      vertex 203 192 0
    endloop
  endfacet
  facet normal 0 -1 0
    outer loop
      vertex 198 192 11
      vertex 171 192 12
      vertex 171 192 11
    endloop
  endfacet
  facet normal 0 -1 0
    outer loop
      vertex 171 192 12
      vertex 198 192 11
      vertex 211 192 12
    endloop
  endfacet
  facet normal 0 -1 0
    outer loop
      vertex 203 192 11
      vertex 211 192 12
      vertex 198 192 11
    endloop
  endfacet
  facet normal 0 -1 0
    outer loop
      vertex 206 192 11
      vertex 211 192 12
      vertex 203 192 11
    endloop
  endfacet
  facet normal 0 -1 0
    outer loop
      vertex 211 192 0
      vertex 206 192 11
      vertex 206 192 0
    endloop
  endfacet
  facet normal 0 -1 0
    outer loop
      vertex 206 192 11
      vertex 211 192 0
      vertex 211 192 12
    endloop
  endfacet
  facet normal 1 -0 0
    outer loop
      vertex 195 194 11
      vertex 195 197 0
      vertex 195 197 11
    endloop
  endfacet
  facet normal 1 0 0
    outer loop
      vertex 195 197 0
      vertex 195 194 11
      vertex 195 194 0
    endloop
  endfacet
  facet normal 0 0 -1
    outer loop
      vertex 171 194 0
      vertex 195 197 0
      vertex 195 194 0
    endloop
  endfacet
  facet normal -0 0 -1
    outer loop
      vertex 195 197 0
      vertex 171 194 0
      vertex 171 197 0
    endloop
  endfacet
  facet normal 0 1 -0
    outer loop
      vertex 195 197 0
      vertex 171 197 11
      vertex 195 197 11
    endloop
  endfacet
  facet normal 0 1 0
    outer loop
      vertex 171 197 11
      vertex 195 197 0
      vertex 171 197 0
    endloop
  endfacet
  facet normal 0 -1 0
    outer loop
      vertex 171 194 0
      vertex 195 194 11
      vertex 171 194 11
    endloop
  endfacet
  facet normal 0 -1 -0
    outer loop
      vertex 195 194 11
      vertex 171 194 0
      vertex 195 194 0
    endloop
  endfacet
  facet normal 1 -0 0
    outer loop
      vertex 195 200 11
      vertex 195 203 0
      vertex 195 203 11
    endloop
  endfacet
  facet normal 1 0 0
    outer loop
      vertex 195 203 0
      vertex 195 200 11
      vertex 195 200 0
    endloop
  endfacet
  facet normal 0 0 -1
    outer loop
      vertex 171 200 0
      vertex 195 203 0
      vertex 195 200 0
    endloop
  endfacet
  facet normal -0 0 -1
    outer loop
      vertex 195 203 0
      vertex 171 200 0
      vertex 171 203 0
    endloop
  endfacet
  facet normal 0 1 -0
    outer loop
      vertex 195 203 0
      vertex 171 203 11
      vertex 195 203 11
    endloop
  endfacet
  facet normal 0 1 0
    outer loop
      vertex 171 203 11
      vertex 195 203 0
      vertex 171 203 0
    endloop
  endfacet
  facet normal 0 -1 0
    outer loop
      vertex 171 200 0
      vertex 195 200 11
      vertex 171 200 11
    endloop
  endfacet
  facet normal 0 -1 -0
    outer loop
      vertex 195 200 11
      vertex 171 200 0
      vertex 195 200 0
    endloop
  endfacet
  facet normal 1 -0 0
    outer loop
      vertex 203 192 11
      vertex 203 205 0
      vertex 203 205 11
    endloop
  endfacet
  facet normal 1 0 0
    outer loop
      vertex 203 205 0
      vertex 203 192 11
      vertex 203 192 0
    endloop
  endfacet
  facet normal 0 0 -1
    outer loop
      vertex 198 192 0
      vertex 203 205 0
      vertex 203 192 0
    endloop
  endfacet
  facet normal -0 0 -1
    outer loop
      vertex 203 205 0
      vertex 198 192 0
      vertex 198 205 0
    endloop
  endfacet
  facet normal -1 0 0
    outer loop
      vertex 198 192 0
      vertex 198 205 11
      vertex 198 205 0
    endloop
  endfacet
  facet normal -1 -0 0
    outer loop
      vertex 198 205 11
      vertex 198 192 0
      vertex 198 192 11
    endloop
  endfacet
  facet normal 0 0 -1
    outer loop
      vertex 206 192 0
      vertex 211 205 0
      vertex 211 192 0
    endloop
  endfacet
  facet normal -0 0 -1
    outer loop
      vertex 211 205 0
      vertex 206 192 0
      vertex 206 205 0
    endloop
  endfacet
  facet normal -1 0 0
    outer loop
      vertex 206 192 0
      vertex 206 205 11
      vertex 206 205 0
    endloop
  endfacet
  facet normal -1 -0 0
    outer loop
      vertex 206 205 11
      vertex 206 192 0
      vertex 206 192 11
    endloop
  endfacet
endsolid OpenSCAD_Model
